<svg width="23" height="29" viewBox="0 0 23 29" fill="none" xmlns="http://www.w3.org/2000/svg">
<path d="M4.152 28.7143H18.3749C21.1474 28.7143 22.5269 27.308 22.5269 24.5223V12.3617C22.5269 10.6337 22.3394 9.884 21.268 8.78571L13.8749 1.27257C12.8577 0.227429 12.0269 0 10.5137 0H4.152C1.39314 0 0 1.41943 0 4.20571V24.5223C0 27.3211 1.39314 28.7143 4.152 28.7143ZM4.25886 26.5583C2.87943 26.5583 2.156 25.8211 2.156 24.4823V4.24571C2.156 2.92 2.87943 2.156 4.27257 2.156H10.2189V9.93772C10.2189 11.6251 11.076 12.4554 12.7366 12.4554H20.3709V24.4823C20.3709 25.8211 19.6606 26.5583 18.268 26.5583H4.25886ZM12.9777 10.4326C12.4554 10.4326 12.2406 10.2189 12.2406 9.68286V2.57143L19.9549 10.4331L12.9777 10.4326ZM16.192 16.1383H6.02629C5.54457 16.1383 5.19657 16.5 5.19657 16.9554C5.19657 17.424 5.54514 17.7857 6.02686 17.7857H16.192C16.3015 17.7875 16.4103 17.7672 16.5118 17.7261C16.6134 17.685 16.7056 17.6239 16.7831 17.5465C16.8605 17.469 16.9216 17.3768 16.9627 17.2753C17.0038 17.1737 17.0241 17.065 17.0223 16.9554C17.0223 16.5 16.6606 16.1383 16.192 16.1383ZM16.192 20.8126H6.02629C5.54457 20.8126 5.19657 21.1874 5.19657 21.656C5.19657 22.1114 5.54514 22.46 6.02686 22.46H16.192C16.6606 22.46 17.0223 22.1114 17.0223 21.656C17.0223 21.1874 16.6606 20.8126 16.192 20.8126Z" fill="black"/>
</svg>
