<svg width="24" height="24" viewBox="0 0 24 24" fill="none" xmlns="http://www.w3.org/2000/svg">
<path d="M11.3962 2.62906C11.7375 2.32156 12.255 2.32156 12.5962 2.62906L21.2962 10.4291C21.6675 10.7591 21.6975 11.3291 21.3637 11.7003C21.03 12.0716 20.4637 12.1016 20.0925 11.7678L19.7925 11.4978V19.1966C19.7925 20.5203 18.7162 21.5966 17.3925 21.5966H6.59246C5.26871 21.5966 4.19246 20.5203 4.19246 19.1966V11.4978L3.89246 11.7678C3.52121 12.0978 2.95496 12.0678 2.62121 11.7003C2.28746 11.3328 2.32121 10.7628 2.68871 10.4291L11.3962 2.62906ZM11.9962 4.50781L5.99621 9.88906V19.2003C5.99621 19.5303 6.26621 19.8003 6.59621 19.8003H8.39621V15.9003C8.39621 14.4078 9.60371 13.2003 11.0962 13.2003H12.8962C14.3887 13.2003 15.5962 14.4078 15.5962 15.9003V19.8003H17.3962C17.7262 19.8003 17.9962 19.5303 17.9962 19.2003V9.88906L11.9962 4.51156V4.50781ZM10.1962 19.8003H13.7962V15.9003C13.7962 15.4016 13.395 15.0003 12.8962 15.0003H11.0962C10.5975 15.0003 10.1962 15.4016 10.1962 15.9003V19.8003Z" fill="black"/>
</svg>
